<svg width="80" height="40" viewBox="0 0 80 40" fill="none" xmlns="http://www.w3.org/2000/svg">
<path stroke="grey" stroke-width="1" fill-rule="evenodd" clip-rule="evenodd" d="M1.73449 26.8151C1.73449 26.8151 2.02802 23.9771 2.10807 23.0936C2.18813 22.2101 3.36224 21.7014 3.30887 21.7549C10.1134 20.2288 34.076 21.4872 34.076 21.4872L39.0901 21.7158L37.4342 17.6934C38.2614 15.2303 40.3161 17.0509 40.3161 17.0509L42.6051 21.8761L52.2748 22.3171C52.7285 22.3439 52.942 22.2368 52.942 21.9691C52.9153 21.7014 52.435 21.4336 52.435 21.4336C51.5277 20.8446 50.1935 20.0146 48.6991 19.1311C48.2484 18.8669 47.8297 18.617 47.4328 18.38C45.4565 17.2 44.0189 16.3417 41.8412 15.6506C41.5528 15.5572 41.287 15.4655 41.0293 15.3765C39.8088 14.9552 38.7677 14.5958 36.3442 14.419V13C36.6022 13.0259 36.8664 13.0455 37.1278 13.0649C37.4072 13.0857 37.6833 13.1062 37.9453 13.1339C40.1334 13.3481 40.4536 13.4551 42.4283 14.1245C49.4196 16.4538 54.2762 20.5769 54.2762 20.5769L58.6791 21.7549C58.6791 21.7549 71.3009 22.8794 75.3302 24.0574C79.3329 25.2354 79.2262 28.7963 79.2262 28.7963V31.1524H79.4663C79.7598 31.1524 80 31.3933 80 31.6878V36.159C80 36.4535 79.7598 36.6945 79.4663 36.6945L73.3823 37.4977C73.0887 37.4977 72.8486 37.2567 72.8486 36.9622V31.6878C71.8612 28.6357 69.0594 26.4135 65.9106 26.4135C62.3883 26.4135 59.7732 29.2782 59.026 32.7588L58.439 35.8377H21.2141L20.8672 32.1698C20.4937 28.9302 17.1581 26.4135 13.8492 26.4135C10.3269 26.4135 6.75117 29.2515 6.75117 32.7588V34.6865C6.75117 34.6865 6.59106 35.5432 5.497 35.1416L1.38759 33.8029C1.38759 33.8029 0 32.9997 0 31.2327V28.1002C0 28.1002 0.0533689 26.8151 1.73449 26.8151ZM59.9867 33.7226C59.9867 37.0425 62.6818 39.7199 65.9907 39.7199C69.2995 39.7199 71.9947 37.0425 71.9947 33.7226C71.9947 30.4027 69.2995 27.7254 65.9907 27.7254C62.6818 27.7254 59.9867 30.4027 59.9867 33.7226ZM61.6411 33.7226C61.6411 31.3398 63.5891 29.3853 65.9907 29.3853C68.3923 29.3853 70.3402 31.3398 70.3402 33.7226C70.3402 36.1322 68.3923 38.0599 65.9907 38.0599C63.5891 38.0599 61.6411 36.1322 61.6411 33.7226ZM7.8986 33.7226C7.8986 37.0425 10.5937 39.7199 13.9026 39.7199C17.2115 39.7199 19.9066 37.0425 19.9066 33.7226C19.9066 30.4027 17.2382 27.7254 13.9026 27.7254C10.5937 27.7254 7.8986 30.4027 7.8986 33.7226ZM9.57972 33.7226C9.57972 31.3398 11.5277 29.3853 13.9293 29.3853C16.3309 29.3853 18.2789 31.3398 18.2789 33.7226C18.2789 36.1322 16.3309 38.0599 13.9293 38.0599C11.501 38.0599 9.57972 36.1322 9.57972 33.7226Z" fill="black"/>
</svg>
