<svg width="80" height="40" viewBox="0 0 80 40" fill="none" xmlns="http://www.w3.org/2000/svg">
<path fill-rule="evenodd" clip-rule="evenodd" d="M0 33.9739V34.9129C0 36.0129 1.14628 36.0665 1.14628 36.0665H8.5838C9.81006 36.0665 9.94335 35.047 9.94335 35.047L11.0896 31.6666C11.8894 29.4667 14.0487 27.9106 16.5811 27.9106C19.4868 27.9106 21.886 29.9764 22.3392 32.7129L22.9523 35.4763C22.9523 35.4763 23.2189 37.1397 25.2982 37.1397L57.5808 37.0055C58.3006 37.0055 58.6471 35.986 58.6471 35.986L60.1399 32.9544C61.3929 29.1448 64.1386 28.4472 65.9247 28.4472C68.4305 28.4472 70.8564 30.0569 71.6294 32.2569C71.7361 32.5788 71.8161 32.9276 71.8694 33.2763L72.4025 35.7982C72.4025 35.7982 72.4825 36.3885 73.2023 36.3885H74.4019C74.6637 36.3885 75.0663 36.4491 75.4183 36.5022C75.6396 36.5356 75.8409 36.5659 75.9747 36.5763C77.7874 36.8177 80 36.5494 80 35.6641C80 34.6178 78.2406 34.0275 78.2406 34.0275V33.169C78.2406 33.169 78.3206 32.4715 77.894 32.4715L76.8277 29.7082C76.8277 29.7082 76.7744 28.5009 75.8947 27.857C74.855 27.1326 68.3772 24.101 53.1023 23.8595C53.1023 23.8595 47.9573 20.506 41.7727 18.7889C41.7727 18.7889 34.1753 16.9109 24.072 18.9499L21.7527 19.567C21.7527 19.567 13.8087 21.6596 8.71709 24.0473C8.71709 24.0473 4.1053 25.6034 2.9057 25.818C2.02599 25.979 2.02599 26.2204 2.02599 26.2204C2.02599 26.2204 1.94602 26.4887 1.94602 26.596V26.8912L1.73276 27.9643C1.73276 27.9643 0.746418 29.3057 1.3862 32.391L0.639787 32.6861C0.639787 32.69 0.626075 32.7009 0.602667 32.7194C0.466177 32.8271 0 33.1953 0 33.9739ZM28.7346 20.0452C33.1799 19.5322 36.4678 19.8621 36.4678 19.8621C44.1986 20.4255 51.0496 24.5571 51.0496 24.5571C40.9309 24.9639 34.1944 24.8044 29.907 24.524L28.7346 20.0452ZM27.6679 20.182C25.3173 20.5144 22.7096 21.0894 20.1266 22.062C20.1266 22.062 20.1266 23.1352 23.4055 23.7522C23.4055 23.7522 24.7428 24.1058 28.2767 24.4028L27.6679 20.182ZM60.7531 34.5373C60.7531 37.4079 63.0723 39.742 65.9247 39.742C68.7771 39.742 71.0963 37.4079 71.0963 34.5373C71.0963 31.6666 68.7771 29.3326 65.9247 29.3326C63.0723 29.3594 60.7531 31.6666 60.7531 34.5373ZM62.4858 34.5373C62.4858 32.6325 64.032 31.0764 65.9247 31.0764C67.8174 31.0764 69.3635 32.6325 69.3635 34.5373C69.3635 36.4421 67.8174 37.9982 65.9247 37.9982C64.0053 37.9982 62.4858 36.4421 62.4858 34.5373ZM11.4095 34.5373C11.4095 37.4079 13.7288 39.742 16.5811 39.742C19.4335 39.742 21.7527 37.4079 21.7527 34.5373C21.7527 31.6666 19.4335 29.3326 16.5811 29.3326C13.7021 29.3326 11.4095 31.6666 11.4095 34.5373ZM13.1423 34.5373C13.1423 32.6325 14.6884 31.0764 16.5811 31.0764C18.4738 31.0764 20.02 32.6325 20.02 34.5373C20.02 36.4421 18.4738 37.9982 16.5811 37.9982C14.6618 37.9982 13.1423 36.4421 13.1423 34.5373Z" stroke="black" stroke-width="1" fill="black"/>
</svg>
