<svg width="80" height="40" viewBox="0 0 80 40" fill="none" xmlns="http://www.w3.org/2000/svg">
<path fill-rule="evenodd" clip-rule="evenodd" d="M0 28.2582V31.386C0 33.1619 1.38713 33.9306 1.38713 33.9306L5.49516 35.2825C6.58886 35.6801 6.74892 34.8319 6.74892 34.8319V32.8969C6.74892 29.398 10.3501 26.5618 13.8446 26.5618C17.1524 26.5618 20.4868 29.0799 20.8603 32.2872L21.2071 35.9716H58.4462L59.033 32.8969C59.7799 29.4245 62.3941 26.5618 65.9153 26.5618C69.063 26.5618 71.864 28.7619 72.851 31.8101V37.0584C72.851 37.35 73.091 37.5885 73.3845 37.5885L79.4665 36.7933C79.7599 36.7933 80 36.5548 80 36.2632V31.7836C80 31.492 79.7599 31.2535 79.4665 31.2535H79.2531V28.8944C79.2531 28.8944 79.3598 25.3425 75.3585 24.1762C71.3305 23.0099 63.4078 21.181 63.4078 21.181L59.0063 20.0147C59.0063 20.0147 52.3374 15.4556 45.3484 13.123C43.3745 12.4603 41.4271 12.2218 39.2664 12.0097C33.051 11.3736 24.7016 11.8772 18.8863 12.3808L13.2311 7L12.7509 7.47712L17.9793 12.4603C14.3248 12.7784 12.0574 13.0965 12.0574 13.0965L12.4308 14.3423C12.4308 14.3423 5.49517 17.258 3.46782 18.7954C3.46782 18.7954 1.73391 19.9352 1.73391 21.8437V26.9859C0.0266756 26.9859 0 28.2582 0 28.2582ZM36.1187 13.176C39.6666 13.3615 42.921 13.7856 44.8683 14.4218C47.4825 15.27 50.7636 16.9929 53.4579 18.5833C54.9517 19.458 56.2855 20.3062 57.1924 20.8894C57.1924 20.8894 57.6726 21.1545 57.6993 21.4195C57.6993 21.6846 57.4859 21.7906 57.0324 21.7641L37.4258 20.5448L36.1187 13.176ZM19.313 19.3786L23.3677 13.5737C23.9813 13.4942 24.6215 13.3881 25.315 13.3351C27.1557 13.1496 29.3431 13.0435 31.6372 13.0435C32.1973 13.0435 32.7575 13.0435 33.3444 13.07C33.4244 15.3231 33.5311 18.2918 33.5845 20.2798L19.313 19.3786ZM12.4042 17.7351C12.4042 17.7351 12.4042 17.7351 12.4308 17.6556C12.4842 17.6026 12.5642 17.4965 12.6976 17.3905C12.991 17.152 13.4979 16.8604 14.2448 16.5423C16.1387 15.6941 18.0327 14.6603 21.3671 13.9447L16.5922 19.1399C16.2988 19.0869 15.952 19.0339 15.5519 18.9544C14.5916 18.7688 13.4445 18.4773 12.9377 18.1592C12.6976 18.0267 12.5642 17.8941 12.4842 17.8146C12.4042 17.7616 12.4042 17.7351 12.4042 17.7351ZM59.94 33.8776C59.94 37.1909 62.6343 39.8681 65.942 39.8681C69.2498 39.8681 71.9441 37.1909 71.9441 33.8776C71.9441 30.5908 69.2498 27.9137 65.942 27.9137C62.6343 27.9137 59.94 30.5908 59.94 33.8776ZM61.5939 33.8776C61.5939 31.492 63.5412 29.557 65.942 29.557C68.3428 29.557 70.2901 31.492 70.2901 33.8776C70.2901 36.2631 68.3428 38.1981 65.942 38.1981C63.5412 38.2246 61.5939 36.2896 61.5939 33.8776ZM7.86929 33.8776C7.86929 37.1909 10.5635 39.8681 13.8713 39.8681C17.1791 39.8681 19.8733 37.1909 19.8733 33.8776C19.8733 30.5908 17.1791 27.9137 13.8713 27.9137C10.5635 27.9137 7.86929 30.5908 7.86929 33.8776ZM9.52311 33.8776C9.52311 31.492 11.4704 29.557 13.8712 29.557C16.272 29.557 18.2193 31.492 18.2193 33.8776C18.2193 36.2631 16.272 38.1981 13.8712 38.1981C11.4704 38.2246 9.52311 36.2896 9.52311 33.8776Z"
stroke="grey" stroke-width="1" fill="black"/>
</svg>
