<svg width="80" height="40" viewBox="0 0 80 40" fill="none" xmlns="http://www.w3.org/2000/svg">
<path fill-rule="evenodd" clip-rule="evenodd" d="M50.1699 7.1128C50.1699 7.1128 47.8774 6.0265 45.5315 6H6.77108C6.77108 6 5.19827 6 4.53182 7.6692C3.86538 9.3649 1.62612 14.0811 1.62612 30.2962H1.013C0.453182 30.2962 0 30.7466 0 31.303V32.4953C0 33.0517 0.453182 33.5021 1.013 33.5021L10.5298 33.6611C11.9427 33.6611 11.996 32.5218 12.1293 31.9654C12.7957 28.0706 15.8347 25.1296 19.5135 25.1296C23.6721 25.1296 27.031 28.9184 27.031 33.5551C27.031 33.6876 27.031 33.7935 27.031 33.926H55.9014C55.9014 33.7935 55.9014 33.6611 55.9014 33.5551C55.9014 28.8919 59.2603 25.1296 63.4189 25.1296C67.0177 25.1296 70.0033 27.9381 70.7764 31.7004C70.7764 31.7004 71.043 33.5021 72.6425 33.5021H78.987C79.5468 33.5021 80 33.0517 80 32.4953V29.6073C80 29.0509 79.5468 28.6005 78.987 28.6005H78.7738L78.1873 24.3612C78.1873 24.3612 74.8284 20.6254 73.3356 19.4596C65.2849 13.2862 50.1699 7.1128 50.1699 7.1128ZM20.5532 16.969C20.5532 17.7374 20.02 18.2673 19.3802 18.2673H7.11763C6.47784 18.2673 5.94469 17.7374 5.94469 17.0485C6.47784 11.458 7.43752 9.31191 7.46418 9.23242C7.65078 8.8085 8.07731 8.51705 8.55715 8.51705H19.3535C19.9933 8.51705 20.5265 9.04696 20.5265 9.57686L20.5532 16.969ZM39.88 16.969C39.88 17.6314 39.3469 18.1348 38.7071 18.1348H25.085C24.8984 18.1348 24.7384 18.0818 24.5785 18.0024H23.992C23.3522 18.0024 22.8191 17.4725 22.8191 16.8366V9.44439C22.8191 8.8085 23.3522 8.27859 23.992 8.27859H36.1746C36.3346 8.27859 36.4678 8.33158 36.6011 8.41107H38.6804C39.3202 8.41107 39.8534 8.94098 39.8534 9.57686V16.969H39.88ZM44.4918 23.6194C44.4918 23.8048 44.3319 23.9903 44.1186 23.9903H43.3722C43.159 23.9903 42.999 23.8313 42.999 23.6194V20.9168C42.999 20.7049 43.159 20.5459 43.3722 20.5459H44.1186C44.3052 20.5459 44.4918 20.7049 44.4918 20.9168V23.6194ZM64.4052 18.1613L44.1186 17.9494C44.1186 17.9494 42.7591 17.9759 42.7591 16.7306V10.1068C42.7591 8.86149 44.1186 8.88798 44.1186 8.88798H45.7181C48.5438 8.782 57.954 13.1007 57.954 13.1007L64.4852 16.6776C66.2713 18.0024 64.4052 18.1613 64.4052 18.1613ZM57.2343 33.5551C57.2343 36.92 59.98 39.649 63.3922 39.649C66.7777 39.649 69.5502 36.92 69.5502 33.5551C69.5502 30.1902 66.8044 27.4612 63.3922 27.4612C59.98 27.4612 57.2343 30.1902 57.2343 33.5551ZM60.3799 33.5551C60.3799 31.9124 61.7394 30.5611 63.3922 30.5611C65.045 30.5611 66.4045 31.9124 66.4045 33.5551C66.4045 35.1978 65.045 36.5491 63.3922 36.5491C61.7128 36.5491 60.3799 35.1978 60.3799 33.5551ZM13.3289 33.5551C13.3289 36.92 16.0746 39.649 19.4868 39.649C22.899 39.649 25.6448 36.92 25.6448 33.5551C25.6448 30.1902 22.899 27.4612 19.4868 27.4612C16.0746 27.4612 13.3289 30.1902 13.3289 33.5551ZM16.4745 33.5551C16.4745 31.9124 17.8341 30.5611 19.4868 30.5611C21.1396 30.5611 22.4992 31.9124 22.4992 33.5551C22.4992 35.1978 21.1396 36.5491 19.4868 36.5491C17.8341 36.5491 16.4745 35.1978 16.4745 33.5551Z" fill="black"/>
</svg>
