<svg width="80" height="40" viewBox="0 0 80 40" fill="none" xmlns="http://www.w3.org/2000/svg">
<path fill-rule="evenodd" clip-rule="evenodd" d="M73.0147 34.9495C73.148 35.414 73.6547 35.414 73.6547 35.414L78.2414 35.1559C78.2414 35.1559 79.1748 34.8721 79.4948 32.6269C79.7881 30.3817 80.5348 28.7816 79.3615 28.5236L78.1081 25.8138C78.1081 25.8138 77.6814 24.059 73.4147 23.2848C67.9479 22.2783 62.0812 21.6073 62.0812 21.6073L61.2011 21.4525C61.2011 21.4525 50.8009 14.6136 45.5208 13.7362C40.2407 12.8588 24.4805 12.1104 17.8137 15.5685C13.5469 17.7879 9.33351 20.1879 9.33351 20.1879L1.36003 20.8589C1.36003 20.8589 0 20.2653 0 26.6138L1.04002 32.3946C1.25336 33.5301 2.08004 33.7882 2.08004 33.7882L5.14676 34.6398C6.34678 35.0269 6.42679 34.2527 6.42679 34.2527L7.94681 30.5623C8.98683 28.4203 11.2535 27.3622 13.8936 27.3622C17.0136 27.3622 19.627 28.9365 20.2937 31.8527L21.0937 35.4656C21.2537 36.1882 22.0271 36.1882 22.0271 36.1882H57.7877C58.4544 36.1882 58.6144 35.7495 58.6411 35.4656L59.9211 31.2333C60.7478 28.601 63.1745 27.0526 66.0279 27.0526C68.8546 27.0526 71.228 28.5494 72.108 31.1043L73.0147 34.9495ZM42.5075 24.4203C42.5075 24.2396 42.6408 24.0848 42.8008 24.0848H44.8008C44.9608 24.0848 45.0942 24.2396 45.0942 24.4203V24.859C45.0942 25.0396 44.9608 25.1945 44.8008 25.1945H42.8008C42.6408 25.1945 42.5075 25.0396 42.5075 24.859V24.4203ZM40.2407 14.5362C40.3741 14.5362 40.2407 14.5362 40.3741 14.5362C42.9341 14.6394 46.4275 15.2588 47.5476 15.6459C50.1609 16.5491 54.241 18.7427 56.2677 19.9557C56.2677 19.9557 59.3344 21.8138 59.6011 22.2009C59.8678 22.6138 59.3344 22.588 59.3344 22.588L42.0808 21.5299L40.2407 14.5362ZM18.9337 23.3106C18.9337 23.1299 19.067 22.9751 19.227 22.9751H21.2271C21.3871 22.9751 21.5204 23.1299 21.5204 23.3106V23.7493C21.5204 23.9299 21.3871 24.0848 21.2271 24.0848H19.227C19.067 24.0848 18.9337 23.9299 18.9337 23.7493V23.3106ZM22.3471 20.6266L24.7471 15.2072C26.6672 14.1233 33.894 14.4588 38.7207 14.6136L39.8141 21.4525L22.3471 20.6266ZM15.2269 19.3363C15.2269 19.3363 19.947 16.4201 22.0804 15.6201L20.0537 20.446L17.3337 20.5492L14.9069 20.3686C14.9069 20.3944 14.1869 20.3686 15.2269 19.3363ZM7.89348 34.2269C7.89348 37.3237 10.5069 39.8528 13.7069 39.8528C16.907 39.8528 19.5204 37.3237 19.5204 34.2269C19.5204 31.1301 16.907 28.601 13.7069 28.601C10.5069 28.601 7.89348 31.1301 7.89348 34.2269ZM10.8535 34.2269C10.8535 32.7043 12.1336 31.4655 13.7069 31.4655C15.2803 31.4655 16.5603 32.7043 16.5603 34.2269C16.5603 35.7495 15.2803 36.9882 13.7069 36.9882C12.1336 36.9882 10.8535 35.7495 10.8535 34.2269ZM60.1878 34.2269C60.1878 37.3237 62.8012 39.8528 66.0012 39.8528C69.2013 39.8528 71.8147 37.3237 71.8147 34.2269C71.8147 31.1301 69.2013 28.601 66.0012 28.601C62.7745 28.601 60.1878 31.1301 60.1878 34.2269ZM63.1478 34.2269C63.1478 32.7043 64.4279 31.4655 66.0012 31.4655C67.5746 31.4655 68.8546 32.7043 68.8546 34.2269C68.8546 35.7495 67.5746 36.9882 66.0012 36.9882C64.4279 36.9882 63.1478 35.7495 63.1478 34.2269Z" fill="black"/>
</svg>
