<svg width="80" height="41" viewBox="0 0 80 41" fill="none" xmlns="http://www.w3.org/2000/svg">
<path fill-rule="evenodd" clip-rule="evenodd" d="M0.72024 29.6809C0.320107 29.6809 0 29.9974 0 30.3931V33.1365C0 33.5322 0.320107 33.8487 0.72024 33.8487H6.989C8.24275 33.8487 8.53618 32.7408 8.53618 32.7408L10.8303 27.043C10.8303 27.043 11.4171 24.8536 14.2181 24.8536H20.1934C22.8876 24.8536 23.6612 27.2804 23.6612 27.2804L25.4485 31.8439C25.9553 33.1893 27.4758 33.2156 27.4758 33.2156H56.899C58.0193 33.2156 58.3928 32.2132 58.3928 32.2132L60.3668 27.1749C60.3668 27.1749 61.0337 24.88 63.8079 24.88H69.7833C72.5842 24.88 73.091 26.9375 73.091 26.9375L74.7983 32.3979C74.9583 32.9518 75.7319 32.9782 75.7319 32.9782H79.2798C79.6799 32.9782 80 32.6617 80 32.266V29.549C80 29.1533 79.6799 28.8368 79.2798 28.8368H78.026V24.8008C78.026 24.8008 77.9993 24.1414 77.5992 24.0095V22.928C77.5992 22.6378 77.4925 22.374 77.2791 22.2421C75.6786 21.187 68.8229 20.633 68.8229 20.633L57.0323 20.0263L50.4702 10.8993C48.7362 8.97364 46.8156 9.00002 46.8156 9.00002H10.2434C8.53618 9.00002 7.94932 10.4245 7.94932 10.4245L3.17439 25.1701V29.6809H0.72024ZM47.8559 11.0839C48.016 11.1631 48.2294 11.3477 48.4428 11.5851L48.8963 12.1655C49.1364 12.482 49.3765 12.8249 49.5632 13.0623L55.005 20.0527H48.1761L47.8559 11.0839ZM45.8019 10.8201H45.8286L46.122 20.0791H37.2924L37.2124 10.8201C37.2391 10.8201 45.8019 10.8201 45.8019 10.8201ZM35.2384 10.8201C35.2651 10.8201 35.2651 10.8201 35.2918 10.8201V20.0791H21.7939L23.2344 10.8201H35.2384ZM23.1544 21.4507C23.1544 21.2925 23.2878 21.1606 23.4478 21.1606H25.9553C26.1154 21.1606 26.2487 21.2925 26.2487 21.4507V21.8464C26.2487 22.0047 26.1154 22.1366 25.9553 22.1366H23.4478C23.2878 22.1366 23.1544 22.0047 23.1544 21.8464V21.4507ZM39.053 21.4507C39.053 21.2925 39.1864 21.1606 39.3464 21.1606H41.8539C42.014 21.1606 42.1474 21.2925 42.1474 21.4507V21.8464C42.1474 22.0047 42.014 22.1366 41.8539 22.1366H39.3464C39.1864 22.1366 39.053 22.0047 39.053 21.8464V21.4507ZM7.78926 20.0791L10.0567 10.8201H19.9L18.8863 20.0791H7.78926ZM10.3768 33.5058C10.3768 37.2516 13.4712 40.3115 17.2591 40.3115C21.047 40.3115 24.1414 37.2779 24.1414 33.5058C24.1414 29.76 21.047 26.7001 17.2591 26.7001C13.4445 26.7265 10.3768 29.76 10.3768 33.5058ZM13.8713 33.5058C13.8713 31.6593 15.3918 30.1821 17.2324 30.1821C19.0997 30.1821 20.5935 31.6593 20.5935 33.5058C20.5935 35.3523 19.073 36.8295 17.2324 36.8295C15.3918 36.8559 13.8713 35.3523 13.8713 33.5058ZM59.7799 33.5058C59.7799 37.2516 62.8743 40.3115 66.6622 40.3115C70.4501 40.3115 73.5445 37.2779 73.5445 33.5058C73.5445 29.76 70.4501 26.7001 66.6622 26.7001C62.8743 26.7001 59.7799 29.76 59.7799 33.5058ZM63.3011 33.5058C63.3011 31.6593 64.8216 30.1821 66.6622 30.1821C68.5295 30.1821 70.0233 31.6593 70.0233 33.5058C70.0233 35.3523 68.5028 36.8295 66.6622 36.8295C64.8216 36.8295 63.3011 35.3523 63.3011 33.5058Z" fill="black"/>
</svg>
