<svg version="1.0" xmlns="http://www.w3.org/2000/svg"
 width="80" height="40" viewBox="0 0 1920.000000 945.000000">

<g transform="translate(0.000000,945.000000) scale(0.100000,-0.100000)"
fill="#000000" stroke="none">
<path d="M283 9351 c-89 -30 -165 -104 -195 -189 -11 -30 -13 -733 -13 -3787
l0 -3750 26 -55 c35 -74 67 -110 131 -145 49 -28 62 -30 179 -33 l126 -4 6
174 c7 243 39 401 128 623 158 396 496 754 885 937 107 50 293 111 424 140 93
20 133 22 345 22 212 0 252 -2 344 -22 371 -81 656 -234 914 -490 196 -193
353 -441 432 -681 l18 -55 29 80 c184 507 602 914 1113 1083 224 74 298 85
570 85 264 0 339 -10 544 -76 543 -174 971 -596 1151 -1136 22 -64 45 -147 52
-185 7 -37 15 -67 18 -67 3 0 78 109 168 243 90 133 315 467 500 742 l337 500
1488 3 1487 2 160 -55 c272 -94 401 -152 530 -238 277 -185 492 -419 630 -688
127 -248 186 -472 197 -756 l6 -153 909 0 908 0 0 90 c0 791 530 1494 1293
1714 183 53 246 61 492 61 246 0 316 -9 495 -61 640 -185 1121 -704 1260
-1359 14 -68 23 -154 27 -269 l6 -168 40 5 c22 3 74 22 115 43 166 81 287 260
321 474 6 37 11 230 11 450 l0 385 55 29 c145 75 233 259 206 427 -21 129
-106 251 -212 304 l-48 25 -3 212 -3 213 -239 420 c-637 1119 -984 1682 -1274
2071 -141 188 -216 272 -296 331 l-58 43 -1112 0 -1111 0 -66 -24 c-165 -58
-289 -196 -356 -396 l-28 -85 -3 -1672 -2 -1673 -990 0 -991 0 3 148 3 147
830 5 830 5 47 23 c26 13 67 46 92 73 83 92 76 -78 76 1946 l0 1803 1773 2
1772 3 54 30 c67 37 115 92 141 163 20 53 21 72 18 571 l-3 516 -28 57 c-32
65 -90 120 -151 143 -37 14 -528 110 -2081 410 -275 53 -753 146 -1063 206
l-562 109 -6888 0 c-6585 -1 -6889 -1 -6939 -19z m11713 -1499 c110 -50 179
-157 178 -277 -1 -115 -65 -214 -172 -267 l-47 -23 -4750 0 -4750 0 -57 28
c-106 52 -168 150 -168 267 0 130 78 238 203 282 50 17 262 17 4782 15 l4730
-2 51 -23z m9 -1674 c93 -51 135 -101 161 -196 15 -54 16 -72 6 -118 -22 -106
-71 -172 -165 -222 l-52 -27 -4750 0 -4750 0 -57 28 c-242 119 -220 460 35
549 50 17 261 17 4787 15 l4735 -2 50 -27z m4605 -50 c30 -15 69 -42 86 -60
60 -63 1125 -1900 1162 -2003 19 -54 11 -158 -16 -211 -47 -92 -108 -139 -222
-171 -61 -17 -128 -18 -1090 -18 l-1025 0 -75 23 c-275 86 -474 303 -558 608
l-27 99 0 515 0 515 27 98 c93 339 343 580 647 627 31 4 277 7 546 7 l490 -2
55 -27z"/>
<path d="M8684 2663 c-109 -192 -318 -560 -466 -820 -147 -260 -268 -474 -268
-477 0 -3 335 -6 745 -6 l745 0 0 123 c0 184 29 331 117 587 168 494 426 861
653 931 14 4 -280 8 -652 8 l-677 1 -197 -347z"/>
<path d="M2195 2990 c-356 -32 -664 -177 -921 -434 -289 -289 -434 -635 -435
-1036 -1 -177 18 -303 71 -461 163 -493 558 -859 1060 -983 500 -123 1020 19
1390 380 215 209 349 446 418 738 24 101 26 130 27 316 0 222 -9 290 -65 460
-111 338 -356 642 -662 821 -260 152 -586 225 -883 199z m250 -1105 c103 -29
189 -108 242 -221 24 -51 28 -72 28 -149 0 -80 -3 -97 -32 -157 -40 -84 -97
-147 -170 -186 -121 -63 -243 -65 -363 -6 -191 96 -270 319 -181 510 86 184
271 265 476 209z"/>
<path d="M5615 2990 c-339 -31 -651 -173 -897 -409 -244 -233 -390 -510 -443
-836 -17 -106 -20 -336 -4 -438 90 -600 517 -1074 1106 -1227 681 -177 1401
158 1708 795 100 207 134 350 142 590 4 144 2 189 -15 291 -38 223 -120 423
-247 605 -86 123 -269 301 -393 383 -279 185 -629 275 -957 246z m250 -1105
c185 -51 309 -267 261 -455 -21 -83 -60 -152 -112 -200 -228 -210 -590 -93
-655 212 -34 157 53 338 200 417 93 49 190 57 306 26z"/>
<path d="M11082 2989 c-171 -16 -379 -77 -542 -159 -174 -87 -389 -271 -516
-440 -73 -96 -181 -307 -218 -423 -120 -375 -87 -771 95 -1127 331 -650 1096
-962 1790 -730 234 78 404 184 585 364 287 287 434 640 434 1041 0 586 -344
1112 -883 1352 -228 101 -498 146 -745 122z m250 -1100 c178 -40 314 -254 278
-438 -41 -214 -242 -359 -447 -323 -88 15 -150 49 -219 117 -80 80 -108 146
-109 265 0 107 29 188 97 264 101 114 233 152 400 115z"/>
<path d="M16488 2990 c-482 -46 -911 -315 -1154 -727 -311 -525 -262 -1197
120 -1670 445 -551 1202 -717 1830 -402 604 303 925 966 790 1628 -92 453
-424 860 -857 1049 -226 99 -494 144 -729 122z m202 -1060 c160 -30 284 -139
331 -289 71 -231 -70 -483 -300 -535 -87 -20 -131 -20 -206 -1 -83 22 -147 60
-206 122 -224 237 -106 621 214 699 66 16 101 17 167 4z"/>
</g>
</svg>
