<svg width="80" height="41" viewBox="0 0 80 41" fill="none" xmlns="http://www.w3.org/2000/svg">
<path fill-rule="evenodd" clip-rule="evenodd" d="M0 34.1746V35.0783C0 35.4504 0.319787 35.7693 0.692871 35.7693H15.3764C15.6962 35.7693 15.9893 35.5567 16.0959 35.2643L16.6023 33.5632C17.4284 30.9319 19.8001 29.0447 22.6249 29.0181C25.7162 29.0181 28.2745 31.2774 28.8874 34.3075C28.8874 34.3075 28.9674 35.2643 29.8734 35.2643H62.7582C63.3977 35.2643 63.5043 34.7327 63.5043 34.7327L63.6909 34.0683C64.6236 30.9584 66.8354 28.6194 69.8468 28.6194C75.3364 28.6194 76.2958 33.6696 76.2958 33.6696C76.3758 34.0417 76.7488 34.3606 77.1219 34.3606H79.3071C79.6802 34.3606 80 34.0417 80 33.6696V31.1711C80 30.799 79.6802 30.48 79.3071 30.48H79.1472V25.3236C79.1472 23.8351 77.6816 23.3035 77.6816 23.3035L72.8048 21.0709L64.9167 7.30268C64.064 5.94712 62.7848 6.00028 62.7848 6.00028H4.02398C2.95803 6.00028 2.90473 6.90398 2.90473 6.90398V33.4569H0.692871C0.319787 33.5101 0 33.8025 0 34.1746ZM65.7695 21.8151V12.9641H65.9294L70.4597 21.0177L68.9674 21.8151H65.7695ZM51.1659 32.6861V13.0704C51.1659 12.1933 51.8854 11.5022 52.7382 11.5022H62.7582C63.6376 11.5022 64.3305 12.1933 64.3305 13.0704V24.4199C64.3305 25.0578 64.1706 26.0147 63.9307 26.626L61.6389 32.9253C61.3724 33.6696 60.5197 34.2543 59.7202 34.2543H52.7648C51.8854 34.2543 51.1659 33.5632 51.1659 32.6861ZM65.2365 35.5567C65.2365 38.1881 67.3951 40.3144 70.0333 40.3144C72.6716 40.3144 74.8301 38.1881 74.8301 35.5567C74.8301 32.9253 72.6716 30.799 70.0333 30.799C67.3951 30.7724 65.2365 32.9253 65.2365 35.5567ZM67.6882 35.5567C67.6882 34.2809 68.7542 33.2177 70.0333 33.2177C71.3125 33.2177 72.3784 34.2543 72.3784 35.5567C72.3784 36.8325 71.3391 37.8957 70.0333 37.8957C68.7275 37.8957 67.6882 36.8325 67.6882 35.5567ZM17.8281 35.5567C17.8281 38.1881 19.9867 40.3144 22.6249 40.3144C25.2632 40.3144 27.4217 38.1881 27.4217 35.5567C27.4217 32.9253 25.2632 30.799 22.6249 30.799C19.96 30.7724 17.8281 32.9253 17.8281 35.5567ZM20.2798 35.5567C20.2798 34.2809 21.3191 33.2177 22.6249 33.2177C23.9307 33.2177 24.97 34.2543 24.97 35.5567C24.97 36.8325 23.9307 37.8957 22.6249 37.8957C21.3191 37.8691 20.2532 36.8325 20.2798 35.5567ZM51.8854 13.0704V32.6861C51.8854 33.1645 52.2851 33.5632 52.7648 33.5632H59.7735C60.2798 33.5632 60.8394 33.1645 61.026 32.6861L63.3178 26.3868C63.5043 25.8552 63.6642 24.9781 63.6642 24.4199V13.0704C63.6642 12.592 63.2645 12.1933 62.7848 12.1933H52.7648C52.2851 12.1933 51.8854 12.592 51.8854 13.0704ZM53.1646 23.4896C53.1646 23.277 53.3511 23.0909 53.5643 23.0909H54.2305C54.4437 23.0909 54.6302 23.277 54.6302 23.4896V25.9083C54.6302 26.121 54.4437 26.307 54.2305 26.307H53.5643C53.3511 26.307 53.1646 26.121 53.1646 25.9083V23.4896ZM53.1379 14.2134C53.1379 14.0007 53.3245 13.8147 53.5376 13.8147H61.7722C61.9853 13.8147 62.1719 14.0007 62.1719 14.2134V21.3632C62.1719 21.5759 61.9853 21.7619 61.7722 21.7619H53.5376C53.3245 21.7619 53.1379 21.5759 53.1379 21.3632V14.2134Z" fill="black"/>
</svg>
