<svg width="80" height="40" viewBox="0 0 80 40" fill="none" xmlns="http://www.w3.org/2000/svg">
<path fill-rule="evenodd" clip-rule="evenodd" d="M0 28.0913V31.2472C0 33.0545 1.38713 33.8367 1.38713 33.8367L5.49516 35.2124C6.58886 35.617 6.74892 34.7539 6.74892 34.7539V32.7848C6.74892 29.2242 10.3501 26.365 13.8446 26.365C17.1524 26.365 20.4868 28.9275 20.8603 32.1913L21.2071 35.9137H58.4461L59.033 32.8117C59.7799 29.2782 62.3941 26.3919 65.9153 26.3919C69.063 26.3919 71.864 28.6308 72.8509 31.7058V37.0197C72.8509 37.3164 73.091 37.5591 73.3845 37.5591L79.4665 36.7499C79.7599 36.7499 80 36.5072 80 36.2104V31.6788C80 31.3821 79.7599 31.1394 79.4665 31.1394H79.2531V28.7657C79.2531 28.7657 79.3598 25.1511 75.3585 23.9643C71.3304 22.7774 63.4078 20.9162 63.4078 20.9162L59.0063 19.7294C59.0063 19.7294 52.3374 15.0899 45.3484 12.7432C43.3745 12.0688 41.4271 11.853 39.2664 11.6102C33.051 10.9898 23.8746 10.7741 18.086 11.2866L17.4191 11.3405C13.7646 11.6642 10.6169 12.0149 10.6169 12.0149L6.13538 12.6353C6.13538 12.6353 2.53418 12.851 2.53418 15.1438C2.53418 15.1438 1.76059 19.5945 1.76059 21.5636V26.7966C0.0266755 26.7966 0 28.0913 0 28.0913ZM36.1187 12.7971C39.6666 12.9859 42.921 13.4175 44.8683 14.0649C47.4825 14.9011 50.7636 16.6813 53.4578 18.2728C54.9517 19.1629 56.2854 19.9991 57.1924 20.6195C57.1924 20.6195 57.6726 20.8893 57.6992 21.159C57.6992 21.4287 57.4858 21.5366 57.0323 21.5097L37.4258 20.7544L36.1187 12.7971ZM18.9396 20.7274L19.3398 13.0668C19.9533 12.9859 20.5669 13.0129 21.3404 12.9859C23.2077 12.905 29.3698 12.6892 31.6372 12.6892C32.1974 12.6892 32.7576 12.6892 33.3444 12.7162C33.4245 14.982 33.5845 18.6504 33.6379 20.6465L18.9396 20.7274ZM3.7079 21.0511C3.76125 18.2728 4.88163 14.6043 4.88163 14.6043L13.8713 13.3636C15.2051 13.2557 16.6455 13.0668 17.2324 13.0668C17.1791 15.4675 16.8323 19.0011 16.7523 20.7274C16.7523 20.7274 12.6709 20.9972 3.7079 21.0511ZM7.78187 33.7446C7.78187 37.0893 10.4761 39.8137 13.7839 39.8137C17.0916 39.8137 19.7859 37.0893 19.7859 33.7446C19.7859 30.3998 17.0916 27.6754 13.7839 27.6754C10.4761 27.7024 7.78187 30.3998 7.78187 33.7446ZM9.43576 33.7446C9.43576 31.3169 11.3831 29.3748 13.7839 29.3748C16.1847 29.3748 18.132 31.3439 18.132 33.7446C18.132 36.1722 16.1847 38.1413 13.7839 38.1413C11.3831 38.1413 9.43576 36.1722 9.43576 33.7446ZM60.0316 33.7446C60.0316 37.0893 62.7258 39.8137 66.0336 39.8137C69.3414 39.8137 72.0356 37.0893 72.0356 33.7446C72.0356 30.3998 69.3414 27.6754 66.0336 27.6754C62.7258 27.7024 60.0316 30.3998 60.0316 33.7446ZM61.6855 33.7446C61.6855 31.3169 63.6328 29.3748 66.0336 29.3748C68.4344 29.3748 70.3817 31.3439 70.3817 33.7446C70.3817 36.1722 68.4344 38.1413 66.0336 38.1413C63.6328 38.1413 61.6855 36.1722 61.6855 33.7446Z" stroke="black" stroke-width="1" fill="black"/>
</svg>
